<svg xmlns="http://www.w3.org/2000/svg" width="500" height="500" viewBox="0 0 500 500" version="1.1"><path d="M 109.063 264.424 C 107.952 265.763, 108.036 266.001, 109.628 266.010 C 113.080 266.028, 121.789 270.789, 125.914 274.914 L 130 279 130 276.196 C 130 269.471, 112.869 259.838, 109.063 264.424 M 146.463 264.591 C 140.121 266.843, 135 271.567, 135 275.165 L 135 278.185 140.079 273.619 C 143.309 270.715, 147.123 268.433, 150.556 267.351 C 154.831 266.003, 155.725 265.374, 154.854 264.325 C 153.497 262.689, 151.655 262.748, 146.463 264.591 M 99.500 272 C 97.705 273.983, 97.753 274, 105.127 274 C 109.217 274, 115.024 274.638, 118.030 275.418 C 122.953 276.695, 123.297 276.684, 121.498 275.309 C 114.482 269.946, 102.931 268.209, 99.500 272 M 148.373 271.918 C 144.188 273.818, 140.726 277.141, 144.586 275.552 C 145.639 275.119, 150.902 274.532, 156.283 274.247 C 165.751 273.746, 166.011 273.670, 164.378 271.865 C 162.128 269.379, 153.905 269.406, 148.373 271.918 M 89.667 277.667 C 89.300 278.033, 89 279.158, 89 280.167 C 89 281.880, 90.190 281.995, 107.250 281.918 C 124.174 281.843, 125.256 281.730, 122.145 280.373 C 120.299 279.567, 116.525 278.479, 113.758 277.954 C 108.028 276.867, 90.673 276.660, 89.667 277.667 M 149.458 278.006 C 147.234 278.456, 143.859 279.503, 141.958 280.331 C 138.670 281.763, 139.260 281.845, 154 282 C 162.525 282.089, 170.758 282.254, 172.296 282.366 C 174.742 282.545, 175.054 282.253, 174.796 280.035 C 174.501 277.513, 174.447 277.499, 164 277.344 C 158.225 277.258, 151.681 277.556, 149.458 278.006" stroke="none" fill="#ca8f50" fill-rule="evenodd"/><path d="M 131.250 209.718 C 130.563 209.965, 130 211.629, 130 213.417 C 130 216.384, 129.075 217.355, 119.386 224.561 C 96.492 241.589, 85.560 258.534, 83.736 279.819 C 83.030 288.062, 82.860 288, 106.038 288 C 122.488 288, 126.533 288.287, 129.404 289.656 C 132.635 291.196, 133.051 291.196, 135.403 289.656 C 137.541 288.254, 140.998 288, 157.893 288 C 180.259 288, 181.491 287.655, 180.571 281.652 C 180.305 279.918, 179.805 276.250, 179.460 273.500 C 178.654 267.078, 173.946 255.265, 169.561 248.658 C 164.560 241.123, 154.559 231.419, 144.151 224 C 136.007 218.195, 135.031 217.166, 135.016 214.372 C 134.999 211.052, 133.318 208.975, 131.250 209.718 M 120.787 230.165 C 111.426 237.464, 101.140 248.199, 97.411 254.562 C 93.955 260.459, 89.430 272.687, 91.210 271.320 C 108.501 258.039, 117.642 248.664, 125.070 236.594 C 129.473 229.439, 131.334 223.865, 129.250 224.076 C 128.838 224.117, 125.029 226.858, 120.787 230.165 M 135 227.097 C 135 230.600, 140.891 240.180, 148.941 249.768 C 153.912 255.690, 172.895 272.438, 173.710 271.623 C 174.481 270.853, 168.649 257.767, 165.065 252.225 C 160.206 244.711, 153.386 237.836, 143.250 230.233 L 135 224.044 135 227.097 M 284 228 C 283.175 228.533, 281.488 228.976, 280.250 228.985 C 278.923 228.994, 278 229.616, 278 230.500 C 278 231.333, 278.889 232, 280 232 C 281.919 232, 282 232.667, 282 248.531 C 282 262.303, 281.750 265.159, 280.500 265.638 C 277.312 266.862, 279.240 268, 284.500 268 C 288.885 268, 290 267.674, 290 266.393 C 290 265.375, 289.450 264.997, 288.500 265.362 C 287.279 265.830, 287 264.919, 287 260.469 C 287 257.461, 287.411 255, 287.912 255 C 288.414 255, 290.912 257.925, 293.463 261.500 C 297.830 267.620, 298.332 268, 302.051 268 C 306.373 268, 307.035 267.127, 304.100 265.295 C 303.055 264.642, 300.156 261.452, 297.658 258.205 L 293.116 252.303 297.308 248.293 C 299.614 246.088, 302.288 244.009, 303.250 243.673 C 306.702 242.469, 304.916 241, 300 241 C 296.222 241, 295 241.367, 295 242.500 C 295 243.325, 295.544 244, 296.208 244 C 296.873 244, 295.429 246.025, 293 248.500 C 290.571 250.975, 288.227 253, 287.792 253 C 287.356 253, 287 247.150, 287 240 C 287 232.850, 286.663 227.007, 286.250 227.015 C 285.837 227.024, 284.825 227.467, 284 228 M 184 231.500 C 184 232.333, 184.889 233, 186 233 C 187.916 233, 188 233.667, 188 248.933 C 188 263.987, 187.890 264.900, 186 265.500 C 184.900 265.849, 184 266.554, 184 267.067 C 184 268.445, 204.429 268.217, 207.528 266.805 C 210.695 265.362, 213 261.220, 213 256.973 C 213 253.521, 208.385 248, 205.500 248 C 204.328 248, 204.743 247.246, 206.923 245.411 C 209.174 243.517, 210 241.967, 210 239.634 C 210 232.604, 205.093 230.015, 191.750 230.006 C 185.525 230.001, 184 230.295, 184 231.500 M 193.630 235.250 C 193.299 236.488, 193.021 239.637, 193.014 242.250 C 193 246.985, 193.011 247, 196.389 247 C 201.835 247, 204.526 243.803, 204.115 237.821 C 203.927 235.085, 201.087 233, 197.545 233 C 194.956 233, 194.102 233.491, 193.630 235.250 M 313.050 235.369 C 312.555 236.671, 310.991 238.649, 309.575 239.763 C 306.495 242.185, 306.249 244, 309 244 C 310.861 244, 311 244.667, 311 253.566 C 311 266.132, 312.427 268.955, 318.795 268.985 C 322.396 269.001, 328.678 264.059, 326.134 263.211 C 325.414 262.971, 324.324 263.276, 323.713 263.887 C 321.951 265.649, 318.168 265.183, 317.035 263.066 C 316.466 262.002, 316 257.277, 316 252.566 L 316 244 320.500 244 C 323.833 244, 325 243.611, 325 242.500 C 325 241.389, 323.833 241, 320.500 241 L 316 241 316 237 C 316 232.566, 314.443 231.705, 313.050 235.369 M 394.522 235.958 C 393.662 237.621, 391.847 239.710, 390.488 240.600 C 387.721 242.413, 388.052 244, 391.197 244 C 393.168 244, 393.244 244.375, 392.652 251.250 C 391.602 263.453, 393.941 269, 400.135 269 C 403.642 269, 408.974 264.621, 407.408 263.027 C 406.608 262.213, 405.972 262.328, 405.035 263.458 C 403.368 265.466, 399.383 265.442, 398.607 263.418 C 398.273 262.548, 398 257.823, 398 252.918 L 398 244 402.500 244 C 405.833 244, 407 243.611, 407 242.500 C 407 241.389, 405.833 241, 402.500 241 C 398.039 241, 398 240.971, 398 237.559 C 398 232.961, 396.442 232.244, 394.522 235.958 M 224.241 241.995 C 217.314 246.218, 214.835 255.937, 218.960 262.701 C 224.332 271.513, 237.954 270.939, 242.330 261.717 C 246.029 253.922, 243.499 244.888, 236.717 241.670 C 232.073 239.466, 228.224 239.566, 224.241 241.995 M 255.241 241.995 C 248.314 246.218, 245.835 255.937, 249.960 262.701 C 255.332 271.513, 268.954 270.939, 273.330 261.717 C 277.029 253.922, 274.499 244.888, 267.717 241.670 C 263.073 239.466, 259.224 239.566, 255.241 241.995 M 336 241.805 C 331.321 244.374, 328.615 249.205, 328.615 254.992 C 328.615 260.437, 331.641 266.060, 335.522 267.828 C 341.047 270.345, 350.779 268.150, 353.070 263.870 C 354.345 261.486, 353.377 261.514, 348.500 264 C 343.227 266.689, 341.373 266.527, 337.923 263.077 C 335.782 260.936, 335 259.197, 335 256.577 L 335 253 344 253 L 353 253 353 250.016 C 353 242.543, 343.240 237.829, 336 241.805 M 363 241.003 C 362.175 241.535, 360.488 241.976, 359.250 241.985 C 357.923 241.994, 357 242.616, 357 243.500 C 357 244.333, 357.889 245, 359 245 C 360.819 245, 361 245.667, 361 252.375 C 361 261.589, 360.150 266, 358.375 266 C 357.619 266, 357 266.450, 357 267 C 357 267.556, 359.667 268, 363 268 C 367.844 268, 369 267.690, 369 266.393 C 369 265.375, 368.450 264.997, 367.500 265.362 C 366.229 265.849, 366 264.423, 366 256.004 C 366 245, 366.580 244, 372.959 244 C 376.990 244, 378 246.624, 378 257.096 C 378 263.255, 377.660 265.193, 376.500 265.638 C 373.200 266.905, 375.326 268, 381.083 268 C 385.516 268, 387.048 267.661, 386.730 266.750 C 386.489 266.063, 385.664 265.605, 384.896 265.734 C 383.791 265.919, 383.495 264.145, 383.478 257.234 C 383.466 252.409, 382.876 247.104, 382.160 245.380 C 380.094 240.402, 374.136 238.611, 369.037 241.435 C 366.952 242.589, 366.414 242.587, 365.537 241.418 C 364.818 240.461, 364.039 240.334, 363 241.003 M 226.056 244.944 C 220.245 250.755, 223.704 266.025, 230.823 265.985 C 232.295 265.976, 233.995 265.639, 234.600 265.235 C 237.921 263.018, 239.078 254.390, 236.895 248.128 C 235.077 242.913, 229.674 241.326, 226.056 244.944 M 257.056 244.944 C 251.245 250.755, 254.704 266.025, 261.823 265.985 C 263.295 265.976, 264.995 265.639, 265.600 265.235 C 268.921 263.018, 270.078 254.390, 267.895 248.128 C 266.077 242.913, 260.674 241.326, 257.056 244.944 M 337.116 245.580 C 335.952 247.059, 335 248.659, 335 249.135 C 335 249.611, 337.926 250, 341.503 250 L 348.006 250 346.686 246.750 C 344.865 242.265, 340.174 241.692, 337.116 245.580 M 126.235 248.250 C 124.503 250.588, 121.906 253.933, 120.465 255.684 L 117.845 258.869 121.173 260.548 C 123.003 261.472, 125.737 263.386, 127.250 264.801 L 130 267.374 130 255.687 C 130 249.259, 129.862 244, 129.693 244 C 129.523 244, 127.968 245.912, 126.235 248.250 M 135.052 255.301 L 135 266.102 138.254 263.620 C 140.044 262.254, 142.797 260.647, 144.372 260.048 L 147.236 258.960 142.865 254.230 C 140.461 251.628, 137.732 248.375, 136.799 247 C 135.156 244.575, 135.103 244.825, 135.052 255.301 M 193 258 L 193 266 195.851 266 C 200.015 266, 204.897 264.061, 206.021 261.961 C 207.168 259.818, 207.288 254.978, 206.235 253.400 C 204.884 251.377, 201.170 250, 197.066 250 L 193 250 193 258 M 109.063 264.424 C 107.952 265.763, 108.036 266.001, 109.628 266.010 C 113.080 266.028, 121.789 270.789, 125.914 274.914 L 130 279 130 276.196 C 130 269.471, 112.869 259.838, 109.063 264.424 M 146.463 264.591 C 140.121 266.843, 135 271.567, 135 275.165 L 135 278.185 140.079 273.619 C 143.309 270.715, 147.123 268.433, 150.556 267.351 C 154.831 266.003, 155.725 265.374, 154.854 264.325 C 153.497 262.689, 151.655 262.748, 146.463 264.591 M 99.500 272 C 97.705 273.983, 97.753 274, 105.127 274 C 109.217 274, 115.024 274.638, 118.030 275.418 C 122.953 276.695, 123.297 276.684, 121.498 275.309 C 114.482 269.946, 102.931 268.209, 99.500 272 M 148.373 271.918 C 144.188 273.818, 140.726 277.141, 144.586 275.552 C 145.639 275.119, 150.902 274.532, 156.283 274.247 C 165.751 273.746, 166.011 273.670, 164.378 271.865 C 162.128 269.379, 153.905 269.406, 148.373 271.918 M 89.667 277.667 C 89.300 278.033, 89 279.158, 89 280.167 C 89 281.880, 90.190 281.995, 107.250 281.918 C 124.174 281.843, 125.256 281.730, 122.145 280.373 C 120.299 279.567, 116.525 278.479, 113.758 277.954 C 108.028 276.867, 90.673 276.660, 89.667 277.667 M 149.458 278.006 C 147.234 278.456, 143.859 279.503, 141.958 280.331 C 138.670 281.763, 139.260 281.845, 154 282 C 162.525 282.089, 170.758 282.254, 172.296 282.366 C 174.742 282.545, 175.054 282.253, 174.796 280.035 C 174.501 277.513, 174.447 277.499, 164 277.344 C 158.225 277.258, 151.681 277.556, 149.458 278.006" stroke="none" fill="#0c1918" fill-rule="evenodd"/></svg>