<svg xmlns="http://www.w3.org/2000/svg" width="250" height="50" viewBox="41.76564025878906 104.78251647949219 162.0781707763672 40.621978759765625" version="1.1"><path d="M54.532 132.212c-0.555 0.669 -0.513 0.788 0.282 0.793 1.726 0.009 6.08 2.389 8.143 4.452L65 139.5v-1.402c0 -3.362 -8.566 -8.179 -10.469 -5.886m18.7 0.084c-3.171 1.126 -5.731 3.488 -5.731 5.287v1.51l2.539 -2.283c1.615 -1.452 3.522 -2.593 5.239 -3.134 2.138 -0.674 2.584 -0.989 2.149 -1.513 -0.678 -0.818 -1.599 -0.788 -4.196 0.133M49.75 136c-0.897 0.992 -0.874 1 2.813 1 2.045 0 4.949 0.319 6.452 0.709 2.462 0.638 2.634 0.633 1.734 -0.054 -3.508 -2.682 -9.284 -3.55 -10.999 -1.655m24.436 -0.041c-2.092 0.95 -3.824 2.611 -1.893 1.817 0.526 -0.216 3.158 -0.51 5.848 -0.652 4.734 -0.251 4.864 -0.288 4.048 -1.191 -1.125 -1.243 -5.237 -1.23 -8.002 0.026m-29.353 2.874c-0.183 0.183 -0.334 0.746 -0.334 1.25 0 0.857 0.595 0.914 9.125 0.875 8.462 -0.037 9.003 -0.094 7.447 -0.772 -0.923 -0.403 -2.81 -0.947 -4.194 -1.21 -2.865 -0.543 -11.543 -0.647 -12.046 -0.143m29.895 0.17c-1.112 0.225 -2.8 0.749 -3.75 1.163 -1.644 0.716 -1.349 0.757 6.021 0.835 4.263 0.044 8.379 0.127 9.148 0.183 1.223 0.089 1.379 -0.057 1.25 -1.165 -0.147 -1.261 -0.174 -1.268 -5.398 -1.345 -2.888 -0.043 -6.16 0.106 -7.271 0.331" stroke="none" fill="#ca8f50" fill-rule="evenodd" stroke-width="0.5"/><path d="M65.625 104.859c-0.344 0.123 -0.625 0.956 -0.625 1.849 0 1.484 -0.463 1.969 -5.307 5.572 -11.447 8.514 -16.913 16.986 -17.825 27.629 -0.353 4.122 -0.438 4.09 11.151 4.09 8.225 0 10.248 0.143 11.683 0.828 1.615 0.77 1.823 0.77 2.999 0 1.069 -0.701 2.797 -0.828 11.245 -0.828 11.183 0 11.799 -0.172 11.339 -3.174a190 190 0 0 1 -0.555 -4.076c-0.403 -3.211 -2.757 -9.117 -4.949 -12.421 -2.501 -3.768 -7.501 -8.62 -12.705 -12.329 -4.072 -2.902 -4.56 -3.417 -4.567 -4.814 -0.009 -1.66 -0.849 -2.699 -1.883 -2.327m-5.231 10.223c-4.681 3.65 -9.823 9.017 -11.688 12.198 -1.728 2.949 -3.99 9.063 -3.1 8.379 8.646 -6.641 13.216 -11.328 16.93 -17.363 2.201 -3.578 3.132 -6.364 2.09 -6.259 -0.206 0.021 -2.111 1.391 -4.231 3.045M67.5 113.549c0 1.752 2.946 6.542 6.971 11.335 2.486 2.961 11.977 11.335 12.384 10.928 0.386 -0.385 -2.53 -6.928 -4.322 -9.699 -2.429 -3.757 -5.84 -7.194 -10.908 -10.996l-4.125 -3.095zM142 114c-0.412 0.267 -1.256 0.488 -1.875 0.492 -0.663 0.004 -1.125 0.316 -1.125 0.757 0 0.416 0.445 0.75 1 0.75 0.96 0 1 0.334 1 8.265 0 6.886 -0.125 8.314 -0.75 8.553 -1.594 0.612 -0.63 1.181 2 1.181 2.192 0 2.75 -0.163 2.75 -0.803 0 -0.509 -0.275 -0.698 -0.75 -0.515 -0.611 0.234 -0.75 -0.222 -0.75 -2.446 0 -1.504 0.205 -2.735 0.456 -2.735s1.5 1.462 2.776 3.25c2.183 3.06 2.434 3.25 4.294 3.25 2.161 0 2.492 -0.436 1.024 -1.353 -0.522 -0.327 -1.972 -1.921 -3.221 -3.545l-2.271 -2.951 2.096 -2.005c1.153 -1.103 2.49 -2.142 2.971 -2.31 1.726 -0.602 0.833 -1.337 -1.625 -1.337 -1.889 0 -2.5 0.183 -2.5 0.75 0 0.412 0.272 0.75 0.604 0.75 0.333 0 -0.39 1.012 -1.604 2.25s-2.386 2.25 -2.604 2.25 -0.396 -2.925 -0.396 -6.5 -0.169 -6.497 -0.375 -6.492 -0.713 0.226 -1.125 0.492m-50 1.75c0 0.416 0.445 0.75 1 0.75 0.958 0 1 0.334 1 7.966 0 7.527 -0.055 7.984 -1 8.284 -0.55 0.174 -1 0.527 -1 0.783 0 0.689 10.214 0.575 11.764 -0.131 1.583 -0.722 2.736 -2.792 2.736 -4.916 0 -1.726 -2.308 -4.487 -3.75 -4.487 -0.586 0 -0.379 -0.377 0.712 -1.294 1.125 -0.947 1.538 -1.722 1.538 -2.889 0 -3.515 -2.454 -4.809 -9.125 -4.814 -3.112 -0.003 -3.875 0.144 -3.875 0.747m4.815 1.875c-0.166 0.619 -0.304 2.193 -0.308 3.5 -0.007 2.368 -0.002 2.375 1.688 2.375 2.723 0 4.069 -1.599 3.863 -4.59 -0.094 -1.368 -1.514 -2.41 -3.285 -2.41 -1.294 0 -1.722 0.245 -1.958 1.125m59.71 0.059c-0.247 0.651 -1.03 1.64 -1.738 2.197 -1.54 1.211 -1.663 2.119 -0.287 2.119 0.93 0 1 0.334 1 4.783 0 6.283 0.714 7.694 3.897 7.71 1.8 0.008 4.941 -2.463 3.67 -2.887 -0.36 -0.12 -0.905 0.033 -1.21 0.338 -0.881 0.881 -2.772 0.648 -3.339 -0.41 -0.284 -0.532 -0.517 -2.894 -0.517 -5.25V122h2.25c1.667 0 2.25 -0.195 2.25 -0.75s-0.584 -0.75 -2.25 -0.75H158v-2c0 -2.217 -0.778 -2.647 -1.475 -0.816m40.736 0.294c-0.43 0.832 -1.337 1.876 -2.017 2.321 -1.383 0.906 -1.218 1.7 0.354 1.7 0.986 0 1.024 0.188 0.728 3.625 -0.525 6.101 0.644 8.875 3.741 8.875 1.754 0 4.42 -2.189 3.636 -2.986 -0.4 -0.407 -0.718 -0.349 -1.187 0.215 -0.834 1.004 -2.826 0.992 -3.214 -0.02 -0.167 -0.435 -0.303 -2.797 -0.303 -5.25V122h2.25c1.667 0 2.25 -0.195 2.25 -0.75s-0.584 -0.75 -2.25 -0.75c-2.231 0 -2.25 -0.015 -2.25 -1.72 0 -2.299 -0.779 -2.658 -1.739 -0.8m-85.141 3.018c-3.463 2.111 -4.703 6.971 -2.64 10.353 2.686 4.406 9.497 4.119 11.685 -0.492 1.849 -3.897 0.585 -8.415 -2.807 -10.024 -2.322 -1.102 -4.247 -1.052 -6.238 0.163m15.5 0c-3.463 2.111 -4.703 6.971 -2.64 10.353 2.686 4.406 9.497 4.119 11.685 -0.492 1.849 -3.897 0.585 -8.415 -2.807 -10.024 -2.322 -1.102 -4.247 -1.052 -6.238 0.163m40.38 -0.095c-2.34 1.284 -3.692 3.7 -3.692 6.593 0 2.723 1.513 5.534 3.454 6.418 2.763 1.258 7.628 0.161 8.774 -1.979 0.637 -1.192 0.153 -1.178 -2.285 0.065 -2.636 1.345 -3.563 1.264 -5.288 -0.462 -1.071 -1.071 -1.462 -1.94 -1.462 -3.25V126.5h9v-1.492c0 -3.736 -4.88 -6.093 -8.5 -4.106m13.5 -0.401c-0.412 0.266 -1.256 0.486 -1.875 0.491 -0.663 0.004 -1.125 0.316 -1.125 0.757 0 0.416 0.445 0.75 1 0.75 0.909 0 1 0.334 1 3.688 0 4.607 -0.425 6.813 -1.313 6.813 -0.378 0 -0.688 0.225 -0.688 0.5 0 0.278 1.333 0.5 3 0.5 2.422 0 3 -0.155 3 -0.803 0 -0.509 -0.275 -0.698 -0.75 -0.515 -0.635 0.243 -0.75 -0.469 -0.75 -4.679C183 122.5 183.29 122 186.48 122c2.015 0 2.521 1.312 2.521 6.548 0 3.079 -0.17 4.048 -0.75 4.271 -1.65 0.633 -0.587 1.181 2.292 1.181 2.216 0 2.982 -0.17 2.824 -0.625 -0.12 -0.344 -0.533 -0.573 -0.917 -0.508 -0.552 0.092 -0.701 -0.794 -0.709 -4.25 -0.006 -2.413 -0.301 -5.065 -0.659 -5.927 -1.033 -2.489 -4.012 -3.385 -6.561 -1.972 -1.042 0.577 -1.312 0.576 -1.75 -0.009 -0.359 -0.478 -0.749 -0.542 -1.268 -0.207m-68.472 1.97c-2.905 2.905 -1.176 10.54 2.384 10.521 0.736 -0.004 1.586 -0.173 1.889 -0.375 1.661 -1.109 2.239 -5.423 1.147 -8.553 -0.909 -2.607 -3.611 -3.401 -5.42 -1.592m15.5 0c-2.905 2.905 -1.176 10.54 2.384 10.521 0.736 -0.004 1.586 -0.173 1.889 -0.375 1.661 -1.109 2.239 -5.423 1.147 -8.553 -0.909 -2.607 -3.611 -3.401 -5.42 -1.592m40.03 0.318c-0.582 0.74 -1.058 1.54 -1.058 1.778s1.463 0.432 3.252 0.432h3.252l-0.66 -1.625c-0.91 -2.243 -3.256 -2.529 -4.785 -0.585m-105.441 1.335c-0.866 1.169 -2.164 2.841 -2.885 3.717l-1.31 1.593 1.664 0.84c0.915 0.462 2.282 1.419 3.038 2.127l1.375 1.286v-5.843c0 -3.214 -0.069 -5.843 -0.153 -5.843 -0.085 0 -0.863 0.956 -1.729 2.125m4.409 3.526L67.5 133.051l1.627 -1.241c0.895 -0.683 2.272 -1.486 3.059 -1.786l1.432 -0.544 -2.186 -2.365c-1.202 -1.301 -2.567 -2.928 -3.033 -3.615 -0.822 -1.212 -0.848 -1.087 -0.874 4.151M96.5 129v4h1.425c2.082 0 4.523 -0.97 5.085 -2.019 0.574 -1.071 0.633 -3.491 0.107 -4.28 -0.675 -1.012 -2.533 -1.7 -4.585 -1.7H96.5zm-41.968 3.212c-0.555 0.669 -0.513 0.788 0.282 0.793 1.726 0.009 6.08 2.389 8.143 4.452L65 139.5v-1.402c0 -3.362 -8.566 -8.179 -10.469 -5.886m18.7 0.084c-3.171 1.126 -5.731 3.488 -5.731 5.287v1.51l2.539 -2.283c1.615 -1.452 3.522 -2.593 5.239 -3.134 2.138 -0.674 2.584 -0.989 2.149 -1.513 -0.678 -0.818 -1.599 -0.788 -4.196 0.133M49.75 136c-0.897 0.992 -0.874 1 2.813 1 2.045 0 4.949 0.319 6.452 0.709 2.462 0.638 2.634 0.633 1.734 -0.054 -3.508 -2.682 -9.284 -3.55 -10.999 -1.655m24.436 -0.041c-2.092 0.95 -3.824 2.611 -1.893 1.817 0.526 -0.216 3.158 -0.51 5.848 -0.652 4.734 -0.251 4.864 -0.288 4.048 -1.191 -1.125 -1.243 -5.237 -1.23 -8.002 0.026m-29.353 2.874c-0.183 0.183 -0.334 0.746 -0.334 1.25 0 0.857 0.595 0.914 9.125 0.875 8.462 -0.037 9.003 -0.094 7.447 -0.772 -0.923 -0.403 -2.81 -0.947 -4.194 -1.21 -2.865 -0.543 -11.543 -0.647 -12.046 -0.143m29.895 0.17c-1.112 0.225 -2.8 0.749 -3.75 1.163 -1.644 0.716 -1.349 0.757 6.021 0.835 4.263 0.044 8.379 0.127 9.148 0.183 1.223 0.089 1.379 -0.057 1.25 -1.165 -0.147 -1.261 -0.174 -1.268 -5.398 -1.345 -2.888 -0.043 -6.16 0.106 -7.271 0.331" stroke="none" fill="#0c1918" fill-rule="evenodd" stroke-width="0.5"/></svg>